<svg xmlns="http://www.w3.org/2000/svg" viewBox="0 0 488.1 158.55"><defs><style>.a,.d,.g{fill:none;}.b{clip-path:url(#a);}.c,.j{fill:#d7e3bf;}.d,.g{stroke:#010101;stroke-linecap:round;stroke-linejoin:round;}.d{stroke-width:0.63px;}.e,.h{fill:#010101;}.f{fill:#fad7bb;}.g{stroke-width:0.15px;}.h,.j{fill-rule:evenodd;}.i{fill:#d8d9d8;}</style><clipPath id="a" transform="translate(-16.76 -21.68)"><path class="a" d="M16.04 21.04h489.6V182.8H16.04z"/></clipPath></defs><title>stream</title><g class="b"><path class="c" d="M.31 46.2h22.97v22.91H.31z"/><path class="d" d="M.31 46.2h22.97v22.91H.31z"/><path class="e" d="M15.08 59.01v2c0 .07-.09.12-.22.12-.14-.19-.47-.59-1.47-1.73l-2.66-3c-.31-.35-1.09-1.3-1.33-1.55a2.73 2.73 0 0 0-.06.75v2.5a8.83 8.83 0 0 0 .21 2.38.77.77 0 0 0 .58.21h.36a.2.2 0 0 1 0 .28H7.96a.2.2 0 0 1 0-.28h.31c.26 0 .44-.1.5-.23a11.07 11.07 0 0 0 .15-2.36v-3.34a1 1 0 0 0-.25-.82 1.3 1.3 0 0 0-.71-.28h-.2a.21.21 0 0 1 0-.29h1.3a2.93 2.93 0 0 0 .53 0 15.8 15.8 0 0 0 2 2.53l1.11 1.25c.8.88 1.36 1.52 1.9 2.07a1 1 0 0 0 .05-.48v-2.42a8.4 8.4 0 0 0-.23-2.38c-.07-.1-.26-.17-.72-.23h-.19a.2.2 0 0 1 0-.29h2.54a.21.21 0 0 1 0 .29h-.16c-.37.06-.6.15-.64.24a9.11 9.11 0 0 0-.17 2.37z"/><path class="c" d="M63.43.31h68.86v22.91H63.43z"/><path class="d" d="M63.43.31h68.86v22.91H63.43z"/><path class="e" d="M94.14 13.44c.26.54.51 1.07.79 1.58.31-.54.6-1.14.89-1.72l1.07-2.2a6.8 6.8 0 0 0 .88-2.2 7.45 7.45 0 0 0 .86 0h1a.24.24 0 0 1 0 .29h-.24c-.72.07-.82.29-.8 1.09 0 1.22 0 3.34.12 5 0 .58 0 .89.56.93h.37a.2.2 0 0 1 0 .28H96.9a.2.2 0 0 1 0-.28h.34c.56-.06.56-.24.56-1v-4.79c-.08.13-.52 1-.74 1.49l-1 2c-.51 1-1 2.09-1.24 2.62a.12.12 0 0 1-.11 0 .14.14 0 0 1-.1 0c-.2-.61-.75-1.74-1-2.3l-1-2.21c-.24-.53-.48-1.13-.73-1.65 0 .71-.08 1.37-.12 2s-.08 1.72-.08 2.69.07 1 .52 1.07h.43c.08.06.07.25 0 .28h-2.44c-.07 0-.09-.23 0-.28h.25c.48-.07.64-.14.71-.94s.13-1.39.19-2.52c.06-1 .11-1.93.13-2.56s-.07-.9-.77-1h-.18a.22.22 0 0 1 0-.29h.91a8.56 8.56 0 0 0 .95 0 4.38 4.38 0 0 0 .6 1.89zM102.91 13.77c0-.69 0-.91-.48-1h-.48a.13.13 0 0 1 0-.22 4.61 4.61 0 0 0 1.65-.58.12.12 0 0 1 .1.05v5.15c0 .77 0 .94.44 1h.42c.06.06 0 .22 0 .25h-2.4c-.07 0-.08-.19 0-.25h.41c.42 0 .43-.2.43-1z"/><path class="f" d="M63.43 46.2h68.86v51.63H63.43z"/><path class="d" d="M63.43 46.2h68.86v51.63H63.43z"/><path class="e" d="M90.24 68.95c0-1.59 0-1.82-.94-1.93h-.24c-.09-.06-.06-.34 0-.38h6.75a17.5 17.5 0 0 1 .24 2 .3.3 0 0 1-.38 0c-.23-.72-.37-1.25-1.16-1.45a7.1 7.1 0 0 0-1.49-.09h-1.1c-.46 0-.46 0-.46.61v3.06c0 .43.05.43.51.43h.89a5.84 5.84 0 0 0 1.3-.09c.18-.06.29-.16.36-.54l.13-.63a.29.29 0 0 1 .39 0c0 .37-.06 1-.06 1.54s.06 1.14.06 1.47a.29.29 0 0 1-.39 0l-.14-.6a.66.66 0 0 0-.48-.58 5.05 5.05 0 0 0-1.17-.08h-.89c-.46 0-.51 0-.51.42v2.21c0 .81.05 1.33.29 1.59s.51.35 1.86.35a4.4 4.4 0 0 0 2-.23 3.79 3.79 0 0 0 1.09-1.49.28.28 0 0 1 .38.11 13.31 13.31 0 0 1-.68 2.13h-7.57a.3.3 0 0 1 0-.38h.51c.87-.08.95-.31.95-1.91zM100.03 73.53c0-1.06 0-1.22-.6-1.27h-.25c-.06 0 0-.22 0-.25H101.61c.06 0 .08.21 0 .25h-.19c-.58.06-.6.21-.6 1.27v1.15c0 .19 0 .38.13.38a.57.57 0 0 0 .28-.11c.14-.12.4-.38.51-.48l1.09-1.07a11.28 11.28 0 0 0 .78-.84.3.3 0 0 0 .07-.16s0-.07-.17-.1l-.27-.06a.17.17 0 0 1 0-.25h2.1a.19.19 0 0 1 0 .25 2.46 2.46 0 0 0-.94.28 10.29 10.29 0 0 0-1.4 1.17l-.91.85c-.14.14-.23.23-.23.31s.06.15.19.31c1 1.1 1.73 2 2.51 2.83a1.25 1.25 0 0 0 .81.41h.27a.17.17 0 0 1 0 .25H103.29c-.07 0-.1-.19 0-.25h.23c.14 0 .24 0 .24-.1s-.07-.14-.14-.23c-.19-.25-.45-.52-.84-.95l-.8-.9c-.57-.64-.73-.84-1-.84s-.17.13-.17.48v1.29c0 1.06 0 1.2.58 1.26h.27c.06 0 0 .22 0 .25H99.27a.19.19 0 0 1 0-.25h.2c.53-.08.55-.2.55-1.26z"/><path class="c" d="M63.43 126.49h92.12v22.97H63.43z"/><path class="d" d="M63.43 126.49h92.12v22.97H63.43z"/><path class="e" d="M105.01 135.9a4.94 4.94 0 0 1 3.1-1 8.88 8.88 0 0 1 2 .27.76.76 0 0 0 .32.05c0 .26.07 1 .16 1.69a.24.24 0 0 1-.31 0 2.08 2.08 0 0 0-2.35-1.68 3.14 3.14 0 0 0-3.25 3.49c0 2.41 1.52 3.74 3.41 3.74a2.43 2.43 0 0 0 2.39-1.64.24.24 0 0 1 .3 0 4.4 4.4 0 0 1-.55 1.57 2.62 2.62 0 0 0-.4.11 6.38 6.38 0 0 1-1.81.27 5.07 5.07 0 0 1-2.86-.77 3.7 3.7 0 0 1-1.63-3.16 3.8 3.8 0 0 1 1.48-2.94zM113.42 140c0-.69 0-.91-.48-1h-.48a.13.13 0 0 1 0-.22 4.61 4.61 0 0 0 1.65-.58.12.12 0 0 1 .1.05v5.15c0 .78 0 .94.44 1h.42c.06.06.05.22 0 .25h-2.4c-.07 0-.08-.19 0-.25h.41c.42 0 .43-.2.43-1z"/><path class="g" d="M132.58 152.22v5.74"/><path class="e" d="M145.68 157.07a1.31 1.31 0 0 1-.44.07c-.71 0-1-.43-1-1.36v-2.46h-.48a4 4 0 0 0-.89.08l-.11-.47a2.16 2.16 0 0 1 1.2-.23h2.54l-.1.62h-1.37v2.49c0 .6.24.75.51.75h.19z"/><path class="g" d="M154.23 155.03h-4.83"/><path class="h" d="M155.89 155.03l-2.18 1.09a2.46 2.46 0 0 0 0-2.18l2.18 1.09"/><path class="g" d="M138.66 155.03h-4.42"/><path class="h" d="M132.58 155.03l2.18-1.09a2.39 2.39 0 0 0 0 2.18l-2.18-1.09"/><path class="c" d="M212.75.43h40.14V23.4h-40.14z"/><path class="d" d="M212.75.43h40.14V23.4h-40.14z"/><path class="e" d="M229.04 13.44c.27.54.52 1.07.8 1.58.31-.54.59-1.14.88-1.72l1.08-2.2a6.49 6.49 0 0 0 .87-2.2 7.45 7.45 0 0 0 .86 0h1a.26.26 0 0 1 0 .29h-.25c-.72.07-.81.29-.8 1.09 0 1.22 0 3.34.13 5 0 .58 0 .89.56.93h.37a.2.2 0 0 1 0 .28h-2.74a.2.2 0 0 1 0-.28h.33c.56-.06.56-.24.56-1v-4.79c-.08.13-.52 1-.75 1.49l-1 2c-.52 1-1 2.09-1.24 2.62a.15.15 0 0 1-.12 0 .14.14 0 0 1-.1 0 22.55 22.55 0 0 0-1-2.3l-1-2.21c-.24-.53-.48-1.13-.73-1.65 0 .71-.08 1.37-.11 2s-.08 1.72-.08 2.69.07 1 .51 1.07h.44c.08.06.07.25 0 .28h-2.45c-.06 0-.09-.23 0-.28h.25c.49-.07.65-.14.71-.94s.13-1.39.2-2.52c.06-1 .1-1.93.13-2.56s-.07-.9-.77-1h-.19a.23.23 0 0 1 0-.29h.91a8.56 8.56 0 0 0 1 0 4.34 4.34 0 0 0 .59 1.89zM239.24 18.24a1.41 1.41 0 0 0 .94-.22 1.34 1.34 0 0 0 .32-.41.2.2 0 0 1 .22.06 4.46 4.46 0 0 1-.46 1.22H236.4a.14.14 0 0 1-.07-.13s0-.07.11-.11a8.25 8.25 0 0 0 1.53-1.44 4.41 4.41 0 0 0 1.44-2.77c0-.91-.44-1.46-1.26-1.46a1.46 1.46 0 0 0-1.3 1 .16.16 0 0 1-.24-.13 2.11 2.11 0 0 1 2-1.41 1.55 1.55 0 0 1 1.63 1.63 3.45 3.45 0 0 1-1 2.25l-.61.71c-.83.94-.92 1.1-.92 1.16s.05.09.31.09z"/><path class="f" d="M212.75 46.32h68.86v51.63h-68.86z"/><path class="d" d="M212.75 46.32h68.86v51.63h-68.86z"/><path class="e" d="M239.46 68.95c0-1.59 0-1.82-.93-1.93h-.25c-.09-.06-.06-.34 0-.38h6.75a17.09 17.09 0 0 1 .25 2 .32.32 0 0 1-.39 0c-.23-.72-.36-1.25-1.16-1.45a7 7 0 0 0-1.48-.09h-1.11c-.45 0-.45 0-.45.61v3.06c0 .43 0 .43.5.43h.89a5.77 5.77 0 0 0 1.3-.09c.18-.06.29-.16.37-.54l.12-.63c.08-.09.34-.09.4 0 0 .37-.06 1-.06 1.54s.06 1.14.06 1.47c-.06.11-.32.11-.4 0l-.14-.6a.66.66 0 0 0-.47-.58 5.16 5.16 0 0 0-1.18-.08h-.84c-.46 0-.5 0-.5.42v2.21c0 .81 0 1.33.29 1.59s.5.35 1.85.35a4.46 4.46 0 0 0 2-.23 3.8 3.8 0 0 0 1.08-1.49.29.29 0 0 1 .39.11 13.31 13.31 0 0 1-.69 2.13h-7.56a.29.29 0 0 1 0-.38h.5c.87-.08 1-.31 1-1.91zM249.3 73.99c0-1.06 0-1.22-.61-1.27h-.25c-.06 0 0-.22 0-.25H250.87c.06 0 .08.21 0 .25h-.19c-.58.06-.6.21-.6 1.27v1.15c0 .19 0 .38.13.38a.57.57 0 0 0 .28-.11c.14-.12.4-.38.51-.48l1.09-1.07a11.28 11.28 0 0 0 .78-.84.3.3 0 0 0 .07-.16s0-.07-.17-.1l-.27-.06a.17.17 0 0 1 0-.25h2.1a.19.19 0 0 1 0 .25 2.52 2.52 0 0 0-.94.28 10.29 10.29 0 0 0-1.4 1.17l-.9.85c-.15.14-.24.23-.24.31s.06.15.2.31c.95 1.1 1.72 2 2.5 2.83a1.29 1.29 0 0 0 .81.41h.27a.17.17 0 0 1 0 .25H252.55c-.07 0-.1-.19 0-.25h.23c.14 0 .24 0 .24-.1s-.07-.14-.14-.23c-.19-.25-.45-.52-.83-1l-.81-.9c-.57-.64-.73-.85-1-.85s-.17.14-.17.49v1.29c0 1.06 0 1.2.58 1.26h.27c.06 0 0 .22 0 .25H248.53a.19.19 0 0 1 0-.25h.2c.54-.08.56-.2.56-1.26z"/><path class="c" d="M212.75 126.66h63.12v22.91h-63.12z"/><path class="d" d="M212.75 126.66h63.12v22.91h-63.12z"/><path class="e" d="M239.45 135.9a5 5 0 0 1 3.1-1 8.8 8.8 0 0 1 2 .27.81.81 0 0 0 .32.05c0 .26.07 1 .16 1.69a.24.24 0 0 1-.31 0 2.08 2.08 0 0 0-2.35-1.68 3.15 3.15 0 0 0-3.25 3.49c0 2.41 1.53 3.74 3.41 3.74a2.44 2.44 0 0 0 2.4-1.64.24.24 0 0 1 .3 0 4.4 4.4 0 0 1-.55 1.57 2.34 2.34 0 0 0-.4.11 6.46 6.46 0 0 1-1.82.27 5 5 0 0 1-2.85-.77 3.7 3.7 0 0 1-1.63-3.16 3.82 3.82 0 0 1 1.47-2.94zM248.77 144.47a1.46 1.46 0 0 0 1-.22 1.34 1.34 0 0 0 .32-.41.2.2 0 0 1 .22.06 4.55 4.55 0 0 1-.46 1.23h-3.87a.14.14 0 0 1-.07-.13s.05-.07.11-.11a9.12 9.12 0 0 0 1.54-1.45 4.43 4.43 0 0 0 1.43-2.76c0-.91-.44-1.47-1.25-1.47a1.47 1.47 0 0 0-1.31 1 .16.16 0 0 1-.24-.13 2.11 2.11 0 0 1 2-1.42 1.56 1.56 0 0 1 1.66 1.64 3.51 3.51 0 0 1-1.08 2.21l-.61.7c-.82.94-.91 1.1-.91 1.16s0 .09.31.09z"/><path class="c" d="M361.55.43h109.06V23.4H361.55z"/><path class="d" d="M361.55.43h109.06V23.4H361.55z"/><path class="e" d="M412.24 13.44c.26.54.52 1.07.79 1.58.31-.54.59-1.14.88-1.72l1.08-2.2a6.71 6.71 0 0 0 .87-2.2 7.45 7.45 0 0 0 .86 0h1a.24.24 0 0 1 0 .29h-.24c-.72.07-.81.29-.8 1.09 0 1.22 0 3.34.13 5 0 .58 0 .89.56.93h.36a.2.2 0 0 1 0 .28h-2.74a.2.2 0 0 1 0-.28h.33c.56-.06.56-.24.56-1v-4.79c-.08.13-.51 1-.74 1.49l-1 2c-.52 1-1 2.09-1.24 2.62a.16.16 0 0 1-.12 0 .14.14 0 0 1-.1 0c-.2-.61-.75-1.74-1-2.3l-1-2.21c-.24-.53-.48-1.13-.74-1.65 0 .71-.08 1.37-.12 2s-.08 1.72-.08 2.69.07 1 .52 1.07h.44c.08.06.07.25 0 .28h-2.45c-.07 0-.09-.23 0-.28h.25c.48-.07.64-.14.71-.94s.13-1.39.2-2.52c0-1 .1-1.93.12-2.56s-.07-.9-.76-1h-.19a.22.22 0 0 1 .05-.29h.9a8.64 8.64 0 0 0 1 0 4.34 4.34 0 0 0 .59 1.89zM419.63 18.8a.38.38 0 0 1 .39-.39c.24 0 .37.2.48.36a.56.56 0 0 0 .53.3 2.13 2.13 0 0 0 1.8-2c0-.89-.42-1.64-1.3-1.64a1.45 1.45 0 0 0-1.08.49.26.26 0 0 1-.22-.35 8.45 8.45 0 0 0 1.6-.87 1.24 1.24 0 0 0 .54-1 .82.82 0 0 0-.83-.86 1.6 1.6 0 0 0-1.35.88.17.17 0 0 1-.21-.14 2 2 0 0 1 1.81-1.21c.83 0 1.4.44 1.4 1.15 0 .41-.16.81-1.08 1.29 0 .1 0 .14.13.15a1.5 1.5 0 0 1 1.45 1.54 2.67 2.67 0 0 1-1 2 3.45 3.45 0 0 1-2.1.87c-.42.06-.96-.05-.96-.57z"/><path class="f" d="M361.55 46.32h68.86v51.63h-68.86z"/><path class="d" d="M361.55 46.32h68.86v51.63h-68.86z"/><path class="e" d="M388.24 68.95c0-1.59 0-1.82-.94-1.93h-.24c-.09-.06-.06-.34 0-.38h6.75a17.5 17.5 0 0 1 .24 2 .3.3 0 0 1-.38 0c-.23-.72-.37-1.25-1.16-1.45a7.16 7.16 0 0 0-1.49-.09h-1.1c-.46 0-.46 0-.46.61v3.06c0 .43 0 .43.51.43h.88a5.71 5.71 0 0 0 1.3-.09c.19-.06.29-.16.37-.54l.12-.63c.08-.09.34-.09.4 0 0 .37-.06 1-.06 1.54s.06 1.14.06 1.47c-.06.11-.32.11-.4 0l-.13-.6c-.07-.27-.17-.5-.48-.58a5.1 5.1 0 0 0-1.18-.08h-.88c-.46 0-.51 0-.51.42v2.21c0 .81 0 1.33.29 1.59s.51.35 1.85.35a4.43 4.43 0 0 0 2-.23 3.79 3.79 0 0 0 1.09-1.49.28.28 0 0 1 .38.11 13.31 13.31 0 0 1-.69 2.13h-7.56a.3.3 0 0 1 0-.38h.51c.87-.08 1-.31 1-1.91zM398.04 73.99c0-1.06 0-1.22-.6-1.27h-.25c-.06 0 0-.22 0-.25H399.62c.06 0 .08.21 0 .25h-.19c-.58.06-.61.21-.61 1.27v1.15c0 .19 0 .38.14.38a.57.57 0 0 0 .28-.11c.14-.12.4-.38.51-.48l1.08-1.07c.19-.18.69-.7.79-.84a.3.3 0 0 0 .07-.16s0-.07-.17-.1l-.28-.06a.17.17 0 0 1 0-.25H403.35a.19.19 0 0 1 0 .25 2.47 2.47 0 0 0-.93.28 10.86 10.86 0 0 0-1.41 1.17l-.9.85c-.14.14-.23.23-.23.31s.06.15.19.31c1 1.1 1.73 2 2.51 2.83a1.25 1.25 0 0 0 .8.41h.27a.17.17 0 0 1 0 .25h-2.34c-.08 0-.11-.19 0-.25h.23c.14 0 .24 0 .24-.1s-.07-.14-.14-.23c-.19-.25-.46-.52-.84-1l-.8-.9c-.57-.64-.73-.85-1-.85s-.18.14-.18.49v1.29c0 1.06 0 1.2.59 1.26h.27c.06 0 0 .22 0 .25H397.29a.19.19 0 0 1 0-.25h.2c.53-.08.55-.2.55-1.26z"/><path class="c" d="M361.55 126.32h126.23v22.91H361.55z"/><path class="d" d="M361.55 126.32h126.23v22.91H361.55z"/><path class="e" d="M420.24 135.44a5 5 0 0 1 3.1-1 8.8 8.8 0 0 1 2 .27.81.81 0 0 0 .32.05c0 .26.07 1 .17 1.69a.24.24 0 0 1-.31 0 2.09 2.09 0 0 0-2.28-1.63 3.14 3.14 0 0 0-3.24 3.49c0 2.41 1.52 3.74 3.4 3.74a2.44 2.44 0 0 0 2.4-1.64.24.24 0 0 1 .3 0 4.4 4.4 0 0 1-.55 1.57 2.34 2.34 0 0 0-.4.11 6.4 6.4 0 0 1-1.82.27 5 5 0 0 1-2.85-.77 3.7 3.7 0 0 1-1.63-3.16 3.82 3.82 0 0 1 1.39-2.99zM426.8 144.58a.38.38 0 0 1 .39-.39c.25 0 .38.2.49.36a.56.56 0 0 0 .53.3 2.14 2.14 0 0 0 1.8-2c0-.88-.43-1.64-1.3-1.64a1.45 1.45 0 0 0-1.08.49.27.27 0 0 1-.23-.35 8.22 8.22 0 0 0 1.61-.87 1.24 1.24 0 0 0 .53-1 .81.81 0 0 0-.82-.87 1.62 1.62 0 0 0-1.36.89.17.17 0 0 1-.21-.14 2.06 2.06 0 0 1 1.82-1.22c.82 0 1.4.44 1.4 1.15 0 .42-.16.81-1.08 1.29-.05.1 0 .14.12.15a1.5 1.5 0 0 1 1.46 1.55 2.7 2.7 0 0 1-1 2 3.42 3.42 0 0 1-2.1.86c-.42.06-.97-.09-.97-.56z"/><path class="d" d="M98.12 23.23v19.58"/><path class="h" d="M98.12 46.2l-2.24-4.48a5.11 5.11 0 0 0 4.48 0l-2.24 4.48"/><path class="d" d="M98.12 97.83v24.64"/><path class="h" d="M98.12 125.86l-2.24-4.48a5.11 5.11 0 0 0 4.48 0l-2.24 4.48"/><path class="d" d="M247.15 23.4v19.53"/><path class="h" d="M247.15 46.32l-2.24-4.48a5.17 5.17 0 0 0 4.48 0l-2.24 4.48"/><path class="d" d="M247.15 98.29v24.64"/><path class="h" d="M247.15 126.32l-2.24-4.48a4.8 4.8 0 0 0 4.48 0l-2.24 4.48"/><path class="d" d="M46.2 57.69h13.78"/><path class="h" d="M63.43 57.69l-4.54 2.24a5.11 5.11 0 0 0 0-4.48l4.54 2.24"/><path class="d" d="M395.95 23.4v19.53"/><path class="h" d="M395.95 46.32l-2.24-4.48a5.17 5.17 0 0 0 4.48 0l-2.24 4.48"/><path class="d" d="M395.95 97.95v24.69"/><path class="h" d="M395.95 125.97l-2.24-4.48a4.74 4.74 0 0 0 4.48 0l-2.24 4.48"/><path class="g" d="M155.55 152.33v5.75M252.89 152.45v5.74M274.2 155.26h-4.82"/><path class="h" d="M275.87 155.26l-2.19 1.06a2.39 2.39 0 0 0 0-2.18l2.19 1.09"/><path class="g" d="M258.92 155.26h-4.42"/><path class="h" d="M252.89 155.26l2.19-1.09a2.09 2.09 0 0 0 0 2.18l-2.19-1.09"/><path class="g" d="M275.87 152.45v5.74"/><path class="e" d="M265.24 157.53a1.31 1.31 0 0 1-.44.07c-.71 0-1-.44-1-1.36v-2.51h-.48a4 4 0 0 0-.89.08l-.11-.47a2.16 2.16 0 0 1 1.2-.23h2.54l-.1.62h-1.37v2.49c0 .6.24.74.51.74h.14z"/><path class="g" d="M464.7 152.73v5.75M486.18 155.61h-4.83"/><path class="h" d="M487.79 155.61l-2.13 1.09a2.48 2.48 0 0 0 0-2.19l2.13 1.1"/><path class="g" d="M470.79 155.55h-4.43"/><path class="h" d="M464.7 155.55l2.18-1.09a2.46 2.46 0 0 0 0 2.18l-2.18-1.09"/><path class="g" d="M487.67 152.73v5.75"/><path class="e" d="M477.11 157.53a1.26 1.26 0 0 1-.44.07c-.7 0-1-.44-1-1.36v-2.51h-.48a3.9 3.9 0 0 0-.89.08l-.11-.47a2.09 2.09 0 0 1 1.19-.23h2.54l-.1.62h-1.36v2.49c0 .6.23.74.5.74h.2z"/><path class="i" d="M34.71 46.2H46.2v22.91H34.71z"/><path class="d" d="M34.71 46.2H46.2v22.91H34.71z"/><path class="e" d="M42.24 54.6a5.49 5.49 0 0 1 .56 2.51 6.33 6.33 0 0 1-.34 2.1 2.36 2.36 0 0 1-2.22 1.86 2.15 2.15 0 0 1-1.82-1 4.89 4.89 0 0 1-.76-2.9 5.58 5.58 0 0 1 .51-2.49 2.23 2.23 0 0 1 2.07-1.43 2.2 2.2 0 0 1 2 1.35zm-.86 5.25a8.33 8.33 0 0 0 .31-2.61 10.39 10.39 0 0 0-.18-2.17c-.23-1-.67-1.52-1.3-1.52s-1.07.52-1.31 1.56a10.63 10.63 0 0 0-.16 2.21 8.6 8.6 0 0 0 .19 2c.24.94.69 1.42 1.34 1.42a1.14 1.14 0 0 0 1.13-.89z"/><path class="i" d="M23.29 46.2h11.43v22.91H23.29z"/><path class="d" d="M23.29 46.2h11.43v22.91H23.29z"/><path class="e" d="M29.46 53.32a.56.56 0 0 1 0 .07v6.74c0 .29.07.47.23.55a2.16 2.16 0 0 0 .86.14v.16h-3.16v-.17a1.88 1.88 0 0 0 .89-.18c.14-.1.2-.32.2-.66v-5.21a1.11 1.11 0 0 0-.06-.41.3.3 0 0 0-.29-.14 1.08 1.08 0 0 0-.38.09 4.49 4.49 0 0 0-.44.17v-.15l2.06-1h.07z"/><path class="c" d="M149.17 46.49h22.97V69.4h-22.97z"/><path class="d" d="M149.17 46.49h22.97V69.4h-22.97z"/><path class="e" d="M163.82 59.47v2a.22.22 0 0 1-.22.12c-.14-.19-.47-.59-1.47-1.73l-2.66-3c-.31-.35-1.09-1.3-1.33-1.55a3.36 3.36 0 0 0 0 .75v2.5a9.16 9.16 0 0 0 .2 2.37c.07.13.3.2.59.22h.35a.2.2 0 0 1 0 .28h-2.54a.2.2 0 0 1 0-.28h.31c.26 0 .45-.1.51-.23a11.07 11.07 0 0 0 .15-2.36v-3.34a1 1 0 0 0-.26-.82 1.27 1.27 0 0 0-.71-.28h-.19a.21.21 0 0 1 0-.29h1.3a4.07 4.07 0 0 0 .52 0 15.86 15.86 0 0 0 1.87 2.49l1.11 1.25c.79.88 1.35 1.52 1.89 2.07a1.29 1.29 0 0 0 0-.48v-2.43a8.05 8.05 0 0 0-.23-2.38c-.07-.1-.25-.17-.71-.23h-.2a.2.2 0 0 1 0-.29H164.63a.2.2 0 0 1 0 .29h-.16c-.37.06-.6.15-.65.24a9.56 9.56 0 0 0-.17 2.37z"/><path class="i" d="M183.63 46.49h11.43V69.4h-11.43z"/><path class="d" d="M183.63 46.49h11.43V69.4h-11.43z"/><path class="e" d="M191 55.06a5.37 5.37 0 0 1 .57 2.51 6.34 6.34 0 0 1-.35 2.1 2.35 2.35 0 0 1-2.27 1.86 2.14 2.14 0 0 1-1.81-1 4.89 4.89 0 0 1-.77-2.9 5.58 5.58 0 0 1 .51-2.49 2.24 2.24 0 0 1 2.12-1.42 2.19 2.19 0 0 1 2 1.34zm-.85 5.26a8.42 8.42 0 0 0 .31-2.61 9.82 9.82 0 0 0-.22-2.19c-.23-1-.66-1.51-1.3-1.51s-1.07.52-1.3 1.56a10.53 10.53 0 0 0-.19 2.18 9 9 0 0 0 .19 2c.24 1 .69 1.43 1.35 1.43a1.15 1.15 0 0 0 1.16-.86z"/><path class="i" d="M172.15 46.49h11.49V69.4h-11.49z"/><path class="d" d="M172.15 46.49h11.49V69.4h-11.49z"/><path class="e" d="M175.24 61.32a38.75 38.75 0 0 0 2.78-3.12 3.33 3.33 0 0 0 .74-1.95 1.67 1.67 0 0 0-.45-1.26 1.49 1.49 0 0 0-1.07-.43 1.57 1.57 0 0 0-1.25.56 3.33 3.33 0 0 0-.5.94h-.24a2.86 2.86 0 0 1 .95-1.78 2.3 2.3 0 0 1 1.43-.51 2 2 0 0 1 1.54.6 2 2 0 0 1 .58 1.46 3 3 0 0 1-.63 1.77c-.42.56-1.34 1.57-2.75 3h2.57a1.7 1.7 0 0 0 .76-.13 1.78 1.78 0 0 0 .49-.63l.15.07-.63 1.56h-4.47z"/><path class="d" d="M195.06 57.8h14.24"/><path class="h" d="M212.75 57.8l-4.51 2.24a5.11 5.11 0 0 0 0-4.48l4.54 2.24"/><path class="c" d="M298.38 46.49h22.97V69.4h-22.97z"/><path class="d" d="M298.38 46.49h22.97V69.4h-22.97z"/><path class="e" d="M313.03 59.47v2c0 .07-.09.12-.22.12-.13-.19-.47-.59-1.47-1.73l-2.66-3c-.31-.35-1.09-1.3-1.33-1.55a2.73 2.73 0 0 0-.06.75v2.5a8.71 8.71 0 0 0 .21 2.37c.07.13.3.2.58.22h.36a.2.2 0 0 1 0 .28h-2.54a.2.2 0 0 1 0-.28h.31c.26 0 .44-.1.5-.23a11.07 11.07 0 0 0 .15-2.36v-3.34a1 1 0 0 0-.25-.82 1.3 1.3 0 0 0-.71-.28h-.2a.21.21 0 0 1 0-.29h1.3a4.24 4.24 0 0 0 .53 0 15.8 15.8 0 0 0 2 2.53l1.11 1.25c.8.88 1.36 1.52 1.9 2.07a1 1 0 0 0 .05-.48v-2.47a8.4 8.4 0 0 0-.23-2.38c-.07-.1-.26-.17-.72-.23h-.19a.2.2 0 0 1 0-.29h2.54a.21.21 0 0 1 0 .29h-.16c-.37.06-.6.15-.64.24a9.11 9.11 0 0 0-.17 2.37z"/><path class="i" d="M332.84 46.49h11.49V69.4h-11.49z"/><path class="d" d="M332.84 46.49h11.49V69.4h-11.49z"/><path class="e" d="M338.96 53.76v6.81c0 .29.08.47.23.55a2.16 2.16 0 0 0 .86.14v.16h-3.16v-.17a1.83 1.83 0 0 0 .88-.18q.21-.15.21-.66v-5.19a.92.92 0 0 0-.07-.41.29.29 0 0 0-.29-.14 1.13 1.13 0 0 0-.38.09l-.43.17v-.16l2.05-1h.07z"/><path class="i" d="M321.35 46.49h11.49V69.4h-11.49z"/><path class="d" d="M321.35 46.49h11.49V69.4h-11.49z"/><path class="e" d="M325.76 60.77a1.7 1.7 0 0 0 .86.32 1.34 1.34 0 0 0 1.16-.53 1.89 1.89 0 0 0 .38-1.15 1.81 1.81 0 0 0-.31-1.06 2 2 0 0 0-1.76-.77H325.8v-.15a4.74 4.74 0 0 0 1.41-.74 1.37 1.37 0 0 0 .51-1.11 1.1 1.1 0 0 0-.4-.93 1.48 1.48 0 0 0-.93-.32 1.55 1.55 0 0 0-1.09.45 3.85 3.85 0 0 0-.55.76h-.17a2.51 2.51 0 0 1 .83-1.37 2.15 2.15 0 0 1 1.41-.51 1.79 1.79 0 0 1 1.33.48 1.49 1.49 0 0 1 .47 1.08 1.5 1.5 0 0 1-.39 1 4 4 0 0 1-.68.58 2.81 2.81 0 0 1 .86.53 2 2 0 0 1 .61 1.49 2.57 2.57 0 0 1-.83 1.88 3.31 3.31 0 0 1-2.39.81 1.63 1.63 0 0 1-1-.2.56.56 0 0 1-.28-.44.49.49 0 0 1 .09-.28.34.34 0 0 1 .3-.14 1.66 1.66 0 0 1 .85.32z"/><path class="d" d="M344.32 57.8h13.84"/><path class="h" d="M361.55 57.8l-4.48 2.24a5.11 5.11 0 0 0 0-4.48l4.48 2.24"/><path class="d" d="M46.2 86.34h13.78"/><path class="h" d="M63.43 86.32l-4.54 2.24a5.11 5.11 0 0 0 0-4.48l4.54 2.24"/><path class="d" d="M195.06 86.34h14.24"/><path class="h" d="M212.75 86.32l-4.51 2.26a5.11 5.11 0 0 0 0-4.48l4.54 2.24"/><path class="d" d="M344.67 86.34h13.49"/><path class="h" d="M361.55 86.32l-4.48 2.24a5.11 5.11 0 0 0 0-4.48l4.48 2.24"/><path class="c" d="M20.18 74.86h25.84v22.97H20.18z"/><path class="d" d="M20.18 74.86h25.84v22.97H20.18z"/><path class="e" d="M30.71 88.39c-.08-.25-.12-.29-.47-.29h-1.73c-.29 0-.36 0-.44.28l-.4 1.2a4.47 4.47 0 0 0-.25 1c0 .13.06.2.33.23h.38a.19.19 0 0 1 0 .29h-2.3a.23.23 0 0 1 0-.29h.38a.78.78 0 0 0 .69-.57c.2-.52.52-1.27 1-2.55l1.17-3.1a1.59 1.59 0 0 0 .19-.82 1.28 1.28 0 0 0 .6-.43c.07 0 .15 0 .17.1.15.5.33 1 .51 1.54l1.57 4.61c.33 1 .48 1.16 1 1.22h.31a.23.23 0 0 1 0 .29h-2.71a.2.2 0 0 1 0-.29h.33c.25 0 .41-.1.41-.21a2.46 2.46 0 0 0-.15-.61zm-2.27-1c-.09.26-.08.28.24.28h1.41c.33 0 .36 0 .25-.36l-.61-1.87c-.1-.28-.2-.59-.27-.72a5.52 5.52 0 0 0-.28.67zM36.86 88.37c0-.68 0-.91-.48-1h-.48a.13.13 0 0 1 0-.22 4.69 4.69 0 0 0 1.66-.58.12.12 0 0 1 .1 0v5.15c0 .77 0 1 .43 1h.42c.06.06.05.22 0 .25h-2.4c-.07 0-.08-.19 0-.25h.41c.42 0 .43-.21.43-1z"/><path class="c" d="M315.78 74.86h28.72v22.97h-28.72z"/><path class="d" d="M315.78 74.86h28.72v22.97h-28.72z"/><path class="e" d="M327.74 88.39c-.08-.25-.12-.29-.47-.29h-1.73c-.29 0-.36 0-.44.28l-.4 1.2a4.47 4.47 0 0 0-.25 1c0 .13.06.2.33.23h.38a.19.19 0 0 1 0 .29h-2.3a.23.23 0 0 1 0-.29h.38a.78.78 0 0 0 .69-.57c.2-.52.53-1.27 1-2.55l1.17-3.1a1.59 1.59 0 0 0 .19-.82 1.28 1.28 0 0 0 .6-.43c.07 0 .15 0 .17.1.15.5.33 1 .51 1.54l1.57 4.61c.33 1 .48 1.16 1 1.22h.31a.23.23 0 0 1 0 .29h-2.7a.19.19 0 0 1 0-.29h.34c.24 0 .4-.1.4-.21a2.46 2.46 0 0 0-.15-.61zm-2.27-1c-.09.26-.08.28.24.28h1.41c.34 0 .36 0 .26-.36l-.62-1.87c-.1-.28-.2-.59-.27-.72 0 .05-.15.33-.28.67zM332.1 92.95a.39.39 0 0 1 .39-.4c.24 0 .37.21.48.37a.57.57 0 0 0 .54.3 2.14 2.14 0 0 0 1.79-2c0-.88-.42-1.64-1.29-1.64a1.48 1.48 0 0 0-1.09.49.26.26 0 0 1-.22-.35 8.52 8.52 0 0 0 1.61-.87 1.24 1.24 0 0 0 .53-1 .81.81 0 0 0-.82-.87 1.61 1.61 0 0 0-1.36.89.17.17 0 0 1-.21-.14 2.05 2.05 0 0 1 1.82-1.22c.82 0 1.39.44 1.39 1.16 0 .41-.16.8-1.07 1.28-.05.1 0 .14.12.15a1.51 1.51 0 0 1 1.46 1.55 2.64 2.64 0 0 1-1 2 3.35 3.35 0 0 1-2.1.87c-.43.05-.97-.1-.97-.57z"/></g><path class="j" d="M195.09 75.52h-25.84v22.97h25.84"/><path class="d" d="M195.09 75.52h-25.84v22.97h25.84M195.09 98.49V75.52"/><path class="e" d="M179.78 89.05c-.08-.25-.13-.28-.47-.28h-1.74c-.28 0-.35 0-.43.27l-.4 1.21a4 4 0 0 0-.26.95c0 .14.06.21.34.23h.37a.19.19 0 0 1 0 .29h-2.29a.23.23 0 0 1 0-.29h.38a.76.76 0 0 0 .69-.56c.21-.53.53-1.28 1-2.56l1.17-3.1a1.73 1.73 0 0 0 .2-.82 1.25 1.25 0 0 0 .59-.43.17.17 0 0 1 .18.1c.14.51.33 1 .5 1.54l1.57 4.61c.33 1 .48 1.16 1 1.22h.31c.08.06.05.24 0 .29h-2.71a.2.2 0 0 1 0-.29h.33c.24 0 .4-.09.4-.21a2.56 2.56 0 0 0-.15-.61zm-2.28-1c-.09.27-.08.28.25.28h1.41c.33 0 .35 0 .25-.36l-.62-1.87c-.09-.27-.2-.58-.26-.72a6.9 6.9 0 0 0-.27.68zM186.89 93.05a1.36 1.36 0 0 0 .95-.23 1.34 1.34 0 0 0 .32-.41.2.2 0 0 1 .22.06 4.42 4.42 0 0 1-.46 1.23h-3.87a.14.14 0 0 1-.07-.13s0-.07.11-.11a8.71 8.71 0 0 0 1.54-1.45 4.43 4.43 0 0 0 1.43-2.76c0-.91-.44-1.47-1.25-1.47a1.49 1.49 0 0 0-1.31 1 .16.16 0 0 1-.24-.13 2.11 2.11 0 0 1 2-1.42 1.57 1.57 0 0 1 1.66 1.64 3.46 3.46 0 0 1-1.08 2.21l-.61.7c-.82.94-.91 1.11-.91 1.17s.05.09.31.09z"/></svg>